<svg width="45" height="51" viewBox="0 0 45 51" fill="none" xmlns="http://www.w3.org/2000/svg">
<path d="M22.5 0.916687C10.2821 0.916687 0.375 10.8238 0.375 23.0417C0.375 33.2929 7.35667 41.8971 16.8212 44.4046L22.5 50.0834L28.1788 44.4046C37.6433 41.8971 44.625 33.2929 44.625 23.0417C44.625 10.8238 34.7179 0.916687 22.5 0.916687ZM22.5 5.83335C26.5808 5.83335 29.875 9.12752 29.875 13.2084C29.875 17.2892 26.5808 20.5834 22.5 20.5834C18.4192 20.5834 15.125 17.2892 15.125 13.2084C15.125 9.12752 18.4192 5.83335 22.5 5.83335ZM22.5 40.9875C16.3542 40.9875 10.9212 37.8409 7.75 33.0717C7.82375 28.1796 17.5833 25.5 22.5 25.5C27.3921 25.5 37.1763 28.1796 37.25 33.0717C34.0788 37.8409 28.6458 40.9875 22.5 40.9875Z" fill="#A5F7E2"/>
</svg>
