<svg width="49" height="49" viewBox="0 0 49 49" fill="none" xmlns="http://www.w3.org/2000/svg">
<path d="M24.5 0.75C11.39 0.75 0.75 11.39 0.75 24.5C0.75 37.61 11.39 48.25 24.5 48.25C37.61 48.25 48.25 37.61 48.25 24.5C48.25 11.39 37.61 0.75 24.5 0.75ZM35.1875 34H15C11.0575 34 7.875 30.8175 7.875 26.875C7.875 22.9325 11.0575 19.75 15 19.75L15.3325 19.7738C16.3775 15.665 20.0588 12.625 24.5 12.625C29.7488 12.625 34 16.8762 34 22.125H35.1875C38.465 22.125 41.125 24.785 41.125 28.0625C41.125 31.34 38.465 34 35.1875 34Z" fill="#A5F7E2"/>
</svg>
