<svg width="237" height="398" viewBox="0 0 237 398" fill="none" xmlns="http://www.w3.org/2000/svg">
<path d="M210.557 166.895C193.004 239.608 228.515 339.384 154.204 384.391C146.014 389.35 135.443 394.387 132.335 395.409C111.4 402.288 85.0883 392.263 64.9589 387.245C50.9518 383.755 38.2771 375.883 24.1913 372.58L24.0418 372.542C17.1641 370.929 9.2949 369.082 5.97673 362.259C-3.204 343.382 1.73786 317.774 3.86516 298.016L3.95695 297.161C6.83183 270.432 9.86934 242.207 15.1207 215.943C22.0535 181.283 32.1759 147.217 38.2535 112.385C43.657 81.4199 46.5687 50.4205 59.3614 21.3857C66.4778 5.23252 72.9357 2.53857 89.3824 1.13834C113.829 -0.946026 143.339 11.8051 165.771 19.1603C185.101 25.4959 205.012 30.3461 223.982 37.7333C227.891 39.2533 236.216 40.6216 236.749 45.8285C238.084 58.939 233.8 71.8312 230.912 84.5025C224.622 112.11 217.199 139.38 210.557 166.895Z" fill="#BCD0C7"/>
</svg>
